<?xml version="1.0" standalone="no"?>
<!DOCTYPE svg PUBLIC "-//W3C//DTD SVG 20010904//EN"
 "http://www.w3.org/TR/2001/REC-SVG-20010904/DTD/svg10.dtd">
<svg version="1.0" xmlns="http://www.w3.org/2000/svg"
 width="925.000000pt" height="493.000000pt" viewBox="0 0 925.000000 493.000000"
 preserveAspectRatio="xMidYMid meet">
<metadata>
Created by potrace 1.15, written by Peter Selinger 2001-2017
</metadata>
<g transform="translate(0.000000,493.000000) scale(0.100000,-0.100000)"
fill="#000000" stroke="none">
<path d="M2683 4583 c-51 -10 -48 72 -48 -1580 l0 -1545 24 -19 c22 -18 42
-19 301 -19 333 0 322 -4 327 106 l3 69 -42 30 c-85 61 -145 179 -151 295 -3
53 -5 57 -60 109 -40 37 -69 78 -95 130 -36 72 -37 79 -37 180 0 98 2 111 31
172 17 37 36 69 42 73 7 4 0 30 -21 74 -29 61 -32 76 -32 162 0 87 3 101 33
162 37 77 96 139 168 180 44 24 53 34 58 66 13 69 37 129 71 178 l35 49 0 541
c0 518 -1 543 -19 565 l-19 24 -274 1 c-150 1 -283 0 -295 -3z"/>
<path d="M947 4322 c-16 -17 -17 -131 -17 -1440 0 -1548 -4 -1443 53 -1457 12
-3 156 -5 319 -3 270 3 299 5 315 21 17 17 18 58 21 637 l3 620 359 0 c313 0
361 2 374 16 14 13 16 47 16 219 0 192 -1 205 -19 215 -13 6 -149 10 -375 10
l-356 0 0 355 0 355 429 0 c407 0 430 1 452 19 24 19 24 21 24 221 0 188 -1
203 -19 216 -17 12 -141 14 -791 14 -735 0 -773 -1 -788 -18z"/>
<path d="M7705 4144 c-16 -8 -127 -65 -246 -125 -118 -60 -226 -121 -240 -135
-23 -24 -24 -34 -29 -172 l-5 -147 -120 -3 c-98 -2 -122 -5 -132 -19 -18 -23
-18 -217 0 -231 7 -6 67 -14 134 -18 l122 -7 3 -746 3 -746 23 -65 c50 -138
135 -236 256 -295 106 -52 182 -68 321 -68 200 0 368 54 448 142 32 35 37 48
37 89 0 81 -49 122 -147 122 -86 0 -163 29 -215 81 -85 85 -82 58 -86 821 l-3
666 171 4 c156 3 173 5 186 22 18 26 20 205 2 229 -11 14 -38 17 -183 19
l-170 3 -5 276 c-5 254 -7 279 -24 298 -23 25 -60 27 -101 5z"/>
<path d="M4038 3626 c-354 -63 -624 -291 -727 -613 -51 -160 -64 -250 -65
-428 -1 -616 266 -1059 709 -1176 103 -27 315 -37 423 -19 332 53 557 244 656
557 69 220 33 353 -97 353 -51 0 -53 -1 -107 -62 -141 -160 -246 -231 -389
-263 -217 -50 -449 53 -559 247 -41 71 -85 199 -73 211 4 4 37 14 72 22 35 7
150 32 254 55 105 23 217 47 250 55 33 7 114 25 180 39 66 15 152 34 190 42
178 38 213 57 241 129 30 80 4 231 -68 386 -104 224 -275 380 -488 444 -106
32 -285 41 -402 21z m123 -396 c53 -15 121 -79 152 -144 30 -60 64 -182 54
-192 -6 -6 -122 -34 -397 -94 -74 -16 -153 -34 -175 -40 -55 -13 -52 -14 -59
24 -8 44 8 154 35 232 63 180 216 264 390 214z"/>
<path d="M5950 3613 c-329 -35 -582 -167 -672 -351 -29 -59 -33 -76 -33 -147
0 -63 5 -89 22 -121 63 -119 207 -171 352 -128 76 22 120 72 172 197 80 193
194 258 333 192 81 -39 106 -120 106 -346 l0 -157 -77 -17 c-279 -60 -484
-125 -633 -201 -227 -115 -338 -255 -371 -467 -21 -136 8 -301 71 -400 65
-102 183 -188 326 -237 287 -99 797 -82 1048 34 146 67 203 125 231 233 22 85
22 1414 0 1518 -47 223 -199 350 -464 390 -87 14 -320 18 -411 8z m278 -1513
c-3 -251 -3 -256 -28 -300 -36 -65 -94 -93 -180 -87 -105 7 -171 54 -219 157
-23 48 -26 68 -25 155 0 80 5 112 24 160 43 111 150 192 335 254 l90 30 3 -57
c2 -31 2 -172 0 -312z"/>
<path d="M8156 3000 c-16 -5 -40 -19 -54 -32 -103 -95 -39 -258 102 -258 121
0 193 116 137 220 -31 59 -117 91 -185 70z m110 -36 c47 -22 77 -86 64 -135
-17 -62 -85 -106 -144 -93 -117 26 -143 163 -43 224 39 24 78 25 123 4z"/>
<path d="M1400 907 c0 -160 3 -226 12 -235 7 -7 29 -12 50 -12 l38 0 0 200 0
200 21 -12 c11 -7 74 -79 139 -159 160 -197 201 -229 290 -229 l40 0 0 225 0
225 -26 10 c-14 6 -34 10 -45 10 -18 0 -19 -9 -19 -195 0 -120 -4 -195 -10
-195 -5 0 -66 71 -135 158 -70 86 -142 169 -162 184 -35 27 -107 48 -163 48
l-30 0 0 -223z"/>
<path d="M2462 1119 c-51 -15 -74 -76 -79 -209 -4 -95 -2 -109 19 -150 16 -31
37 -53 68 -70 42 -23 56 -25 212 -28 172 -4 208 2 208 36 0 15 -15 17 -157 17
-141 0 -162 2 -193 21 -41 23 -60 56 -60 102 l0 32 138 1 c151 1 185 7 190 32
3 15 -13 17 -160 19 l-163 3 2 45 c0 25 6 57 12 73 l11 27 175 0 c183 0 215 6
215 40 0 19 -8 20 -202 19 -112 0 -218 -5 -236 -10z"/>
<path d="M3193 1120 c-13 -6 -23 -18 -23 -30 0 -19 6 -20 115 -20 l115 0 0
-193 c0 -137 3 -196 12 -205 7 -7 29 -12 50 -12 l38 0 0 205 0 205 94 0 c108
0 146 10 146 40 0 20 -5 20 -262 19 -145 0 -273 -4 -285 -9z"/>
<path d="M4020 1122 c0 -23 45 -152 75 -217 38 -80 100 -177 138 -217 19 -21
36 -28 62 -28 33 0 39 5 76 63 35 54 93 166 126 247 10 24 11 24 18 5 26 -69
81 -176 120 -236 46 -68 71 -85 112 -77 45 8 205 274 235 391 12 45 11 50 -7
63 -10 8 -30 14 -44 14 -24 0 -28 -7 -50 -79 -24 -80 -128 -292 -147 -298 -14
-5 -91 133 -132 236 -43 106 -55 121 -102 121 -33 0 -37 -3 -49 -37 -24 -69
-73 -177 -114 -252 l-40 -74 -24 29 c-31 39 -95 173 -122 256 -12 36 -28 72
-36 78 -19 16 -95 26 -95 12z"/>
<path d="M5538 1116 c-71 -21 -135 -62 -166 -108 -21 -33 -27 -55 -30 -112 -3
-63 0 -75 23 -111 49 -74 141 -119 266 -130 125 -12 260 23 322 83 51 48 70
97 65 173 -5 88 -36 130 -132 178 -65 33 -75 35 -185 38 -76 1 -132 -2 -163
-11z m284 -64 c63 -27 91 -71 96 -148 5 -71 -11 -111 -60 -147 -47 -35 -92
-47 -172 -47 -167 0 -246 62 -246 192 0 87 42 138 138 165 64 18 187 10 244
-15z"/>
<path d="M6500 1124 c-14 -2 -40 -7 -57 -10 l-33 -5 0 -218 c0 -240 -2 -231
61 -231 l29 0 0 101 0 101 89 -4 c108 -5 120 -12 197 -115 l59 -78 60 -3 60
-3 -26 28 c-14 15 -47 58 -73 94 -27 40 -58 72 -76 79 -34 14 -40 30 -10 30
65 0 130 55 130 111 0 87 -69 121 -255 125 -71 1 -141 1 -155 -2z m233 -55
c84 -23 104 -94 37 -134 -30 -17 -52 -20 -150 -20 l-115 0 0 75 c0 71 1 74 25
81 39 11 161 10 203 -2z"/>
<path d="M7300 912 c0 -246 2 -252 66 -252 l34 0 0 115 c0 63 2 115 5 115 3 0
52 -35 108 -78 177 -137 203 -152 257 -152 84 0 105 19 43 38 -32 10 -293 193
-293 206 0 7 120 99 215 165 l90 63 -70 -7 c-82 -8 -123 -31 -257 -142 -48
-40 -90 -73 -93 -73 -3 0 -5 45 -5 99 0 55 -3 102 -7 104 -5 3 -27 8 -50 12
l-43 7 0 -220z"/>
</g>
</svg>
